<?xml version="1.0" encoding="iso-8859-1"?>
<!-- Generator: Adobe Illustrator 18.0.0, SVG Export Plug-In . SVG Version: 6.00 Build 0)  -->
<!DOCTYPE svg PUBLIC "-//W3C//DTD SVG 1.1//EN" "http://www.w3.org/Graphics/SVG/1.1/DTD/svg11.dtd">
<svg version="1.1" id="Capa_1" xmlns="http://www.w3.org/2000/svg" xmlns:xlink="http://www.w3.org/1999/xlink" x="0px" y="0px"
     viewBox="0 0 427.113 427.113" style="enable-background:new 0 0 427.113 427.113;" xml:space="preserve">
<g>
	<path d="M221.765,106.328c-17.216,0-31.222,14.006-31.222,31.222s14.006,31.222,31.222,31.222s31.222-14.006,31.222-31.222
		S238.981,106.328,221.765,106.328z M221.765,153.772c-8.944,0-16.222-7.277-16.222-16.222s7.277-16.222,16.222-16.222
		s16.222,7.277,16.222,16.222S230.71,153.772,221.765,153.772z"/>
    <path d="M385.774,359.964l-3.672-3.545v0c-23.465-22.649-36.923-54.343-36.923-86.955V236.75
		c0-51.394-23.033-97.503-59.312-128.568l26.169-37.057c2.252-3.188,1.682-7.572-1.313-10.077
		c-4.706-3.939-9.608-7.589-14.677-10.951l1.852-4.469c6.96-16.812-1.051-36.155-17.86-43.119
		c-16.815-6.96-36.157,1.056-43.118,17.87l-2.115,5.106c-3.341-0.605-6.703-1.13-10.093-1.53l-4.775-0.563
		c-3.962-0.467-7.593,2.247-8.27,6.178l-6.944,40.401c-9.359-1.61-18.974-2.46-28.786-2.46h-28.034
		c-60.024,0-108.857,48.833-108.857,108.857c0,4.142,3.357,7.5,7.5,7.5h121.892v19.752c0,64.354,36.108,120.428,89.125,149.042
		v46.458h-29.148c-6.136,0-11.617,3.663-13.965,9.331s-1.062,12.134,3.277,16.473c1.461,1.461,3.369,2.19,5.278,2.19
		c1.917,0,3.836-0.735,5.304-2.203c2.929-2.929,2.903-7.69-0.025-10.619c-0.003-0.051,0.04-0.154,0.131-0.171h36.648
		c5.068,0,9.834,1.974,13.418,5.558l1.245,1.245c1.465,1.464,3.385,2.197,5.304,2.197s3.839-0.732,5.304-2.197
		c2.929-2.929,2.929-7.678,0-10.606l-1.246-1.246c-4.611-4.61-10.314-7.722-16.524-9.115v-40.131
		c20.055,8.391,42.052,13.035,65.115,13.035h42.886c3.058,0,5.809-1.856,6.954-4.691S387.974,362.088,385.774,359.964z
		 M250.78,26.119c3.797-9.174,14.351-13.546,23.52-9.75c9.169,3.799,13.539,14.351,9.742,23.52l-1.011,2.438
		c-10.598-5.694-21.787-10.202-33.397-13.44L250.78,26.119z M225.244,39.139c25.705,3.433,49.891,13.437,70.464,29.108l-4.481,6.345
		c-9.279-6.55-19.21-12.144-29.637-16.64c-12.093-5.212-24.735-8.916-37.672-11.094L225.244,39.139z M221.377,61.639
		c11.77,1.977,23.272,5.346,34.275,10.088c9.472,4.084,18.494,9.165,26.923,15.116l-8.53,12.079
		c-16.311-11.644-34.769-20.46-54.651-25.747L221.377,61.639z M147.905,82.51h20.534v47.642
		C112.42,131.65,74.2,149.644,55.3,161.162C62.59,116.617,101.33,82.51,147.905,82.51z M72.276,168.868
		c3.319-1.735,7.015-3.534,11.092-5.329c17.995-7.922,46.978-17.273,85.071-18.379v23.708H72.276z M183.679,212.163
		c21.811,1.382,42.697,8.583,60.815,21.066c20.254,13.955,35.588,33.479,44.348,56.463l25.31,66.376
		C242.98,345.129,187.696,285.361,183.679,212.163z M337.679,357.86c-2.296,0-4.579-0.06-6.851-0.16l-27.969-73.351
		c-9.847-25.836-27.086-47.784-49.854-63.471c-20.7-14.263-44.613-22.388-69.566-23.75L183.44,82.69
		c81.581,3.922,146.739,71.524,146.739,154.06v32.713c0,32.366,11.791,63.926,32.705,88.396H337.679z"/>
    <path d="M217.297,131.526c-2.616,1.936-3.696,5.484-2.591,8.548c1.065,2.956,3.92,4.971,7.063,4.971
		c3.482,0,6.531-2.475,7.308-5.851C230.603,132.562,222.748,127.491,217.297,131.526z"/>
</g>
    <g>
</g>
    <g>
</g>
    <g>
</g>
    <g>
</g>
    <g>
</g>
    <g>
</g>
    <g>
</g>
    <g>
</g>
    <g>
</g>
    <g>
</g>
    <g>
</g>
    <g>
</g>
    <g>
</g>
    <g>
</g>
    <g>
</g>
</svg>