<svg width="16px" height="16px" viewBox="0 0 16 16" xmlns="http://www.w3.org/2000/svg">
  <path fill="#ffffff" fill-rule="evenodd" d="M4.297105,3.29289 L0.59,7 L4.297105,10.7071 C4.687635,11.0976 5.320795,11.0976 5.711315,10.7071 C6.101845,10.3166 6.101845,9.68342 5.711315,9.29289 L4.418425,8 L11.504215,8 C12.332615,8 13.004215,8.67157 13.004215,9.5 C13.004215,10.3284 12.332615,11 11.504215,11 L10.004215,11 C9.451935,11 9.004215,11.4477 9.004215,12 C9.004215,12.5523 9.451935,13 10.004215,13 L11.504215,13 C13.437215,13 15.004215,11.433 15.004215,9.5 C15.004215,7.567 13.437215,6 11.504215,6 L4.418425,6 L5.711315,4.70711 C6.101845,4.31658 6.101845,3.68342 5.711315,3.29289 C5.320795,2.90237 4.687635,2.90237 4.297105,3.29289 Z"/>
</svg>
